<svg id="Layer_1" data-name="Layer 1" xmlns="http://www.w3.org/2000/svg" viewBox="0 0 2000 1999.94"><defs><style>.cls-1,.cls-2{fill:#fff;}.cls-2{font-size:221.52px;font-family:Ubuntu-Bold, Ubuntu;font-weight:700;}.cls-3{letter-spacing:-0.01em;}.cls-4{letter-spacing:-0.02em;}.cls-5{letter-spacing:0em;}</style></defs><title>duramater_w</title><path class="cls-1" d="M1604.57,979.26a27.69,27.69,0,0,1-27.69-27.7c0-318.09-258.78-576.88-576.88-576.88S423.12,633.47,423.12,951.56a27.69,27.69,0,1,1-55.38,0c0-348.63,283.63-632.26,632.26-632.26s632.26,283.63,632.26,632.26A27.69,27.69,0,0,1,1604.57,979.26Z"/><path class="cls-1" d="M1518.2,1003.65A27.69,27.69,0,0,1,1490.51,976c0-270.47-220-490.51-490.51-490.51S509.49,705.49,509.49,976a27.69,27.69,0,1,1-55.38,0C454.11,675,699,430.07,1000,430.07S1545.89,675,1545.89,976A27.69,27.69,0,0,1,1518.2,1003.65Z"/><path class="cls-1" d="M1000,1331.61c-158.14,0-286.79-128.17-286.79-285.73S841.86,760.16,1000,760.16s286.79,128.17,286.79,285.72S1158.14,1331.61,1000,1331.61Zm0-516.28c-127.6,0-231.41,103.43-231.41,230.55S872.4,1276.44,1000,1276.44s231.41-103.43,231.41-230.56S1127.6,815.33,1000,815.33Z"/><path class="cls-1" d="M1459.53,1000.46a27.69,27.69,0,0,1-55.38,0c0-222.84-181.3-404.14-404.15-404.14s-404.15,181.3-404.15,404.14a27.69,27.69,0,0,1-55.38,0c0-253.37,206.14-459.52,459.53-459.52s459.53,206.15,459.53,459.52"/><path class="cls-1" d="M1345.47,1050.69a27.69,27.69,0,0,1-27.69-27.69c0-175.22-142.55-317.78-317.78-317.78S682.22,847.78,682.22,1023a27.69,27.69,0,0,1-55.38,0c0-205.76,167.4-373.16,373.16-373.16s373.16,167.4,373.16,373.16A27.69,27.69,0,0,1,1345.47,1050.69Z"/><path class="cls-1" d="M1172.73,1089H827.27c-15.3,0-27.69-11.91-27.69-26.61,0-106.2,89.91-192.61,200.42-192.61s200.42,86.41,200.42,192.61C1200.42,1077.07,1188,1089,1172.73,1089Zm-315.12-53.22h284.78C1129.43,971.58,1070.51,923,1000,923S870.57,971.58,857.61,1035.76Z"/><path class="cls-1" d="M1000,1245.31c-55.78,0-99.48-37.09-99.48-84.45v-25.15h43.94v25.15c0,16.12,23.75,34.14,55.54,34.14s55.54-18,55.54-34.14v-25.15h43.94v25.15C1099.48,1208.22,1055.78,1245.31,1000,1245.31Z"/><text class="cls-2" transform="translate(419.29 1632.02)">du<tspan class="cls-3" x="264.27" y="0">r</tspan><tspan x="355.54" y="0">a ma</tspan><tspan class="cls-4" x="844.65" y="0">t</tspan><tspan class="cls-5" x="938.58" y="0">er</tspan></text></svg>