<svg id="Layer_1" data-name="Layer 1" xmlns="http://www.w3.org/2000/svg" viewBox="0 0 1678.47 820.34"><defs><style>.cls-1{fill:#fff;}</style></defs><title>duramater_vert_w</title><path class="cls-1" d="M376.61,640.71q-4.44,1.34-10.2,2.55t-12.07,2.1q-6.31.89-12.85,1.44t-12.51.55a73.41,73.41,0,0,1-25.7-4.2,51.62,51.62,0,0,1-19-12.08A52.3,52.3,0,0,1,272.38,612a72.49,72.49,0,0,1-4.1-25.14,86.22,86.22,0,0,1,3.54-25.59A55.72,55.72,0,0,1,282,541.91a43.45,43.45,0,0,1,16.28-12.18,54.5,54.5,0,0,1,22-4.21,51.66,51.66,0,0,1,12.29,1.33,66.6,66.6,0,0,1,11,3.76V477.89l33-5.32ZM302,585.33q0,15.28,6.87,24.59t20.38,9.3q4.43,0,8.2-.33t6.2-.78v-60a28.45,28.45,0,0,0-8.09-3.32,38.76,38.76,0,0,0-10.08-1.33Q302,553.43,302,585.33Z"/><path class="cls-1" d="M507.08,640.49A184.73,184.73,0,0,1,485.37,645a178.8,178.8,0,0,1-27.91,2.1q-14.85,0-24.7-4A37.54,37.54,0,0,1,417.14,632a43.72,43.72,0,0,1-8.2-17.17,92.51,92.51,0,0,1-2.43-21.93V528h33v60.92q0,16,4.21,23T459.45,619q3.54,0,7.53-.33t7.09-.78V528h33Z"/><path class="cls-1" d="M608.31,557.2q-4.42-1.11-10.41-2.33a64.52,64.52,0,0,0-12.85-1.22,59.56,59.56,0,0,0-7.42.56,44.11,44.11,0,0,0-6.53,1.21v89.06h-33V534.16A198,198,0,0,1,559,528.29a120.41,120.41,0,0,1,26.92-2.77q2.65,0,6.42.33t7.54.89q3.75.56,7.53,1.33a34.7,34.7,0,0,1,6.42,1.88Z"/><path class="cls-1" d="M671.23,524.85q14.61,0,24.36,3.33a37.81,37.81,0,0,1,15.62,9.52,35.15,35.15,0,0,1,8.31,15.07A74.45,74.45,0,0,1,722,572.48v68.67q-7.08,1.56-19.71,3.66a189.88,189.88,0,0,1-30.57,2.1,96.82,96.82,0,0,1-20.49-2,44.44,44.44,0,0,1-15.84-6.54,29.79,29.79,0,0,1-10.19-11.85q-3.55-7.31-3.55-17.94,0-10.19,4.1-17.28a31.61,31.61,0,0,1,11-11.3,49.71,49.71,0,0,1,15.73-6.09A88.48,88.48,0,0,1,670.78,572a104.29,104.29,0,0,1,11.41.55,51.14,51.14,0,0,1,8.09,1.44v-3.1q0-8.41-5.1-13.51t-17.72-5.1a113.07,113.07,0,0,0-16.61,1.22A71.4,71.4,0,0,0,636.67,557l-4.21-26.58q2.88-.89,7.2-1.88c2.88-.67,6-1.25,9.41-1.77s7-1,10.75-1.33S667.38,524.85,671.23,524.85Zm2.65,96.59c3.25,0,6.35-.08,9.31-.22a64.26,64.26,0,0,0,7.09-.67v-25c-1.33-.29-3.33-.59-6-.89a68,68,0,0,0-7.32-.44,67.11,67.11,0,0,0-8.75.55,22.88,22.88,0,0,0-7.19,2.11,12.26,12.26,0,0,0-4.88,4.21,11.71,11.71,0,0,0-1.77,6.64q0,7.75,5.21,10.75C663.06,620.44,667.83,621.44,673.88,621.44Z"/><path class="cls-1" d="M869,582.67q0-15.95-4.1-22.59t-14.06-6.65q-3.11,0-6.43.33c-2.21.22-4.36.48-6.42.78v89.94H805V531.94q4.2-1.11,9.86-2.32t12-2.22q6.31-1,13-1.55t13.07-.55q12.63,0,20.49,3.21a46.37,46.37,0,0,1,13,7.64,61.75,61.75,0,0,1,33.23-10.85q14,0,22.93,3.87a34.53,34.53,0,0,1,14.28,11A41.48,41.48,0,0,1,964.07,557a108.62,108.62,0,0,1,2,21.71v65.8h-33V582.67q0-15.95-4.1-22.59t-14.06-6.65a29.46,29.46,0,0,0-7.42,1.33,28.75,28.75,0,0,0-7.87,3.32,50.25,50.25,0,0,1,2,10.75q.45,5.64.45,12.07v63.58H869Z"/><path class="cls-1" d="M1037.84,524.85q14.63,0,24.37,3.33a37.94,37.94,0,0,1,15.62,9.52,35,35,0,0,1,8.3,15.07,74,74,0,0,1,2.44,19.71v68.67q-7.1,1.56-19.72,3.66a189.71,189.71,0,0,1-30.57,2.1,96.89,96.89,0,0,1-20.49-2,44.44,44.44,0,0,1-15.84-6.54,29.79,29.79,0,0,1-10.19-11.85q-3.54-7.31-3.54-17.94,0-10.19,4.1-17.28a31.58,31.58,0,0,1,11-11.3,49.81,49.81,0,0,1,15.73-6.09A88.65,88.65,0,0,1,1037.4,572a104.42,104.42,0,0,1,11.41.55,51,51,0,0,1,8.08,1.44v-3.1q0-8.41-5.09-13.51t-17.73-5.1a113.07,113.07,0,0,0-16.61,1.22,71.75,71.75,0,0,0-14.18,3.43l-4.21-26.58q2.88-.89,7.2-1.88c2.88-.67,6-1.25,9.42-1.77s7-1,10.74-1.33S1034,524.85,1037.84,524.85Zm2.66,96.59c3.25,0,6.35-.08,9.3-.22a63.77,63.77,0,0,0,7.09-.67v-25q-2-.43-6-.89a67.86,67.86,0,0,0-7.31-.44,67,67,0,0,0-8.75.55,23,23,0,0,0-7.2,2.11,12.23,12.23,0,0,0-4.87,4.21,11.64,11.64,0,0,0-1.78,6.64q0,7.75,5.21,10.75T1040.5,621.44Z"/><path class="cls-1" d="M1117.37,498.94l33-5.32V528H1190v27.47h-39.66v41q0,10.43,3.66,16.62t14.73,6.2a63.41,63.41,0,0,0,11-1,57.28,57.28,0,0,0,10.31-2.77l4.65,25.69a93.24,93.24,0,0,1-13.29,4.21,77.63,77.63,0,0,1-18,1.77q-13.51,0-22.37-3.65a35.12,35.12,0,0,1-14.18-10.19,38,38,0,0,1-7.42-15.84,93.07,93.07,0,0,1-2.1-20.6Z"/><path class="cls-1" d="M1206.86,587.1q0-15.5,4.76-27.14a58.28,58.28,0,0,1,12.52-19.38A52.07,52.07,0,0,1,1242,528.84a55.79,55.79,0,0,1,20.71-4q24.81,0,39.21,15.18t14.4,44.63c0,1.93-.07,4-.22,6.32s-.3,4.32-.44,6.09h-74.88a21.93,21.93,0,0,0,9.53,16.17q8.42,6,22.59,6a95.27,95.27,0,0,0,17.84-1.66,67.06,67.06,0,0,0,14.28-4.1l4.43,26.81a45.58,45.58,0,0,1-7.08,2.65,91,91,0,0,1-9.86,2.33q-5.43,1-11.63,1.66a117.27,117.27,0,0,1-12.41.67q-15.74,0-27.36-4.66a53.32,53.32,0,0,1-19.27-12.73A50.54,50.54,0,0,1,1210.52,611,75.85,75.85,0,0,1,1206.86,587.1Zm77.53-12.63a34.31,34.31,0,0,0-1.44-8.19,20.57,20.57,0,0,0-3.76-7.09,20.13,20.13,0,0,0-6.43-5.1,21,21,0,0,0-9.63-2,22.22,22.22,0,0,0-9.53,1.88,19.67,19.67,0,0,0-6.64,5,22.21,22.21,0,0,0-4.1,7.2,47.89,47.89,0,0,0-2.11,8.3Z"/><path class="cls-1" d="M1412,557.2c-3-.74-6.42-1.52-10.41-2.33a64.52,64.52,0,0,0-12.85-1.22,59.56,59.56,0,0,0-7.42.56,44.56,44.56,0,0,0-6.54,1.21v89.06h-33V534.16a198,198,0,0,1,20.93-5.87,120.41,120.41,0,0,1,26.92-2.77q2.66,0,6.42.33t7.53.89q3.77.56,7.53,1.33a34.82,34.82,0,0,1,6.43,1.88Z"/><path class="cls-1" d="M1529.26,703.78a24.5,24.5,0,0,1-23.88-19.17,677.42,677.42,0,0,0-87.07-212,683,683,0,0,0-1157.86-1.12,677.13,677.13,0,0,0-87.37,211.36A24.5,24.5,0,0,1,125.29,672,726.11,726.11,0,0,1,219,445.41a732,732,0,0,1,1240.89,1.2,726.25,726.25,0,0,1,93.35,227.32,24.51,24.51,0,0,1-18.57,29.25A24.76,24.76,0,0,1,1529.26,703.78Z"/></svg>