<svg id="Layer_1" data-name="Layer 1" xmlns="http://www.w3.org/2000/svg" viewBox="0 0 2000 1999.94"><title>duramater_fav</title><path d="M1884.93,1225.09a40.53,40.53,0,0,1-40.53-40.54c0-465.6-378.79-844.39-844.4-844.39S155.6,719,155.6,1184.55a40.53,40.53,0,1,1-81.06,0c0-510.3,415.15-925.45,925.46-925.45s925.46,415.15,925.46,925.45A40.53,40.53,0,0,1,1884.93,1225.09Z"/><path d="M1758.51,1260.79a40.53,40.53,0,0,1-40.54-40.53c0-395.89-322.08-718-718-718s-718,322.09-718,718a40.54,40.54,0,0,1-81.07,0c0-440.59,358.45-799,799-799s799,358.45,799,799A40.52,40.52,0,0,1,1758.51,1260.79Z"/><path d="M1000,1740.84c-231.47,0-419.78-187.61-419.78-418.23S768.53,904.39,1000,904.39s419.78,187.61,419.78,418.22S1231.47,1740.84,1000,1740.84Zm0-755.69c-186.77,0-338.72,151.39-338.72,337.46s152,337.47,338.72,337.47,338.72-151.39,338.72-337.47S1186.77,985.15,1000,985.15Z"/><path d="M1672.63,1256.13a40.53,40.53,0,0,1-81.06,0c0-326.19-265.38-591.55-591.57-591.55S408.43,929.94,408.43,1256.13a40.53,40.53,0,0,1-81.06,0c0-370.88,301.74-672.62,672.63-672.62s672.63,301.74,672.63,672.62"/><path d="M1505.67,1329.64a40.53,40.53,0,0,1-40.53-40.53C1465.14,1032.64,1256.49,824,1000,824s-465.14,208.66-465.14,465.13a40.54,40.54,0,0,1-81.07,0c0-301.17,245-546.19,546.21-546.19s546.21,245,546.21,546.19A40.53,40.53,0,0,1,1505.67,1329.64Z"/><path d="M1252.83,1385.69H747.17c-22.39,0-40.53-17.43-40.53-39,0-155.44,131.61-281.92,293.36-281.92s293.36,126.48,293.36,281.92C1293.36,1368.26,1275.22,1385.69,1252.83,1385.69Zm-461.25-77.9h416.84c-19-93.94-105.21-165.07-208.42-165.07S810.55,1213.85,791.58,1307.79Z"/><path d="M1000,1614.52c-81.65,0-145.62-54.29-145.62-123.61v-36.82h64.33v36.82c0,23.59,34.76,50,81.29,50s81.29-26.38,81.29-50v-36.82h64.33v36.82C1145.62,1560.23,1081.65,1614.52,1000,1614.52Z"/></svg>