<svg id="Layer_1" data-name="Layer 1" xmlns="http://www.w3.org/2000/svg" viewBox="0 0 205.24 184.08"><defs><style>.cls-1{fill:#fff;}</style></defs><title>0bfav white</title><path class="cls-1" d="M36,53.59H88.79a14.89,14.89,0,0,1,14.92,14.92v52.8a14.89,14.89,0,0,1-14.92,14.92H36a14.89,14.89,0,0,1-14.92-14.92V68.51A14.89,14.89,0,0,1,36,53.59ZM87.18,66H36a2.54,2.54,0,0,0-2.53,2.52v42.58ZM37.6,123.83H88.79a2.46,2.46,0,0,0,1.78-.74,2.43,2.43,0,0,0,.75-1.78V78.73Z"/><path class="cls-1" d="M169.24,69.66a14.89,14.89,0,0,1,14.92,14.92v36.73a14.89,14.89,0,0,1-14.92,14.92H116.45V47.85h12.4V69.66Zm2.53,51.65V84.58A2.43,2.43,0,0,0,171,82.8a2.46,2.46,0,0,0-1.78-.74H131.37a2.46,2.46,0,0,0-1.78.74,2.42,2.42,0,0,0-.74,1.78v36.73a2.42,2.42,0,0,0,.74,1.78,2.46,2.46,0,0,0,1.78.74h37.87a2.46,2.46,0,0,0,1.78-.74A2.43,2.43,0,0,0,171.77,121.31Z"/></svg>