<svg id="Layer_1" data-name="Layer 1" xmlns="http://www.w3.org/2000/svg" viewBox="0 0 2000 1999.94"><title>duramater</title><path d="M1604.57,979.26a27.69,27.69,0,0,1-27.69-27.7c0-318.09-258.78-576.88-576.88-576.88S423.12,633.47,423.12,951.56a27.69,27.69,0,1,1-55.38,0c0-348.63,283.63-632.26,632.26-632.26s632.26,283.63,632.26,632.26A27.69,27.69,0,0,1,1604.57,979.26Z"/><path d="M1518.2,1003.65A27.69,27.69,0,0,1,1490.51,976c0-270.47-220-490.51-490.51-490.51S509.49,705.49,509.49,976a27.69,27.69,0,1,1-55.38,0C454.11,675,699,430.07,1000,430.07S1545.89,675,1545.89,976A27.69,27.69,0,0,1,1518.2,1003.65Z"/><path d="M1000,1331.61c-158.14,0-286.79-128.17-286.79-285.73S841.86,760.16,1000,760.16s286.79,128.17,286.79,285.72S1158.14,1331.61,1000,1331.61Zm0-516.28c-127.6,0-231.41,103.43-231.41,230.55S872.4,1276.44,1000,1276.44s231.41-103.43,231.41-230.56S1127.6,815.33,1000,815.33Z"/><path d="M1459.53,1000.46a27.69,27.69,0,0,1-55.38,0c0-222.84-181.3-404.14-404.15-404.14s-404.15,181.3-404.15,404.14a27.69,27.69,0,0,1-55.38,0c0-253.37,206.14-459.52,459.53-459.52s459.53,206.15,459.53,459.52"/><path d="M1345.47,1050.69a27.69,27.69,0,0,1-27.69-27.69c0-175.22-142.55-317.78-317.78-317.78S682.22,847.78,682.22,1023a27.69,27.69,0,0,1-55.38,0c0-205.76,167.4-373.16,373.16-373.16s373.16,167.4,373.16,373.16A27.69,27.69,0,0,1,1345.47,1050.69Z"/><path d="M1172.73,1089H827.27c-15.3,0-27.69-11.91-27.69-26.61,0-106.2,89.91-192.61,200.42-192.61s200.42,86.41,200.42,192.61C1200.42,1077.07,1188,1089,1172.73,1089Zm-315.12-53.22h284.78C1129.43,971.58,1070.51,923,1000,923S870.57,971.58,857.61,1035.76Z"/><path d="M1000,1245.31c-55.78,0-99.48-37.09-99.48-84.45v-25.15h43.94v25.15c0,16.12,23.75,34.14,55.54,34.14s55.54-18,55.54-34.14v-25.15h43.94v25.15C1099.48,1208.22,1055.78,1245.31,1000,1245.31Z"/><path d="M537.58,1628.25q-4.44,1.34-10.19,2.55t-12.07,2.1q-6.32.88-12.85,1.44t-12.52.56a73.35,73.35,0,0,1-25.69-4.21,51.55,51.55,0,0,1-19.06-12.07,52.38,52.38,0,0,1-11.85-19,72.78,72.78,0,0,1-4.09-25.15,86.11,86.11,0,0,1,3.54-25.58A55.67,55.67,0,0,1,443,1529.45a43.74,43.74,0,0,1,16.28-12.18,54.7,54.7,0,0,1,22-4.21,51.68,51.68,0,0,1,12.3,1.33,66.56,66.56,0,0,1,11,3.77v-52.73l33-5.31Zm-74.65-55.38q0,15.29,6.86,24.59t20.38,9.31c3,0,5.69-.12,8.2-.34s4.58-.47,6.2-.77v-60a28.79,28.79,0,0,0-8.08-3.33,39.31,39.31,0,0,0-10.08-1.33Q462.92,1541,462.93,1572.87Z"/><path d="M668.05,1628a181.84,181.84,0,0,1-21.71,4.54,178.68,178.68,0,0,1-27.91,2.11q-14.83,0-24.7-4a37.44,37.44,0,0,1-15.61-11.19,43.38,43.38,0,0,1-8.2-17.17,92,92,0,0,1-2.44-21.93v-64.9h33v60.92q0,15.94,4.21,23t15.73,7.09q3.54,0,7.53-.33t7.09-.77V1515.5h33Z"/><path d="M769.29,1544.74q-4.44-1.11-10.41-2.33a64.6,64.6,0,0,0-12.85-1.22,59.56,59.56,0,0,0-7.42.56,43,43,0,0,0-6.54,1.22v89h-33V1521.7a198,198,0,0,1,20.93-5.87,121,121,0,0,1,26.91-2.77q2.67,0,6.43.33c2.51.23,5,.52,7.53.89s5,.81,7.53,1.33a35.85,35.85,0,0,1,6.43,1.88Z"/><path d="M832.2,1512.4q14.63,0,24.37,3.32a37.85,37.85,0,0,1,15.62,9.53,34.93,34.93,0,0,1,8.3,15.06,74.08,74.08,0,0,1,2.44,19.71v68.68q-7.09,1.54-19.72,3.65a189.59,189.59,0,0,1-30.57,2.11,96.86,96.86,0,0,1-20.49-2,44.43,44.43,0,0,1-15.84-6.53,29.92,29.92,0,0,1-10.19-11.85q-3.54-7.32-3.54-17.95,0-10.19,4.1-17.28a31.47,31.47,0,0,1,11-11.29,49.58,49.58,0,0,1,15.73-6.1,88.65,88.65,0,0,1,18.39-1.88,107,107,0,0,1,11.41.55,53.38,53.38,0,0,1,8.08,1.44v-3.1q0-8.42-5.09-13.51t-17.73-5.09a113.07,113.07,0,0,0-16.61,1.21,71.71,71.71,0,0,0-14.18,3.44l-4.21-26.59q2.88-.87,7.2-1.88t9.42-1.77c3.39-.52,7-1,10.74-1.33S828.36,1512.4,832.2,1512.4Zm2.66,96.58q4.88,0,9.3-.22a63.77,63.77,0,0,0,7.09-.67v-25c-1.33-.29-3.32-.59-6-.88a64.21,64.21,0,0,0-16.06.11,23,23,0,0,0-7.2,2.1,12.38,12.38,0,0,0-4.87,4.21,11.67,11.67,0,0,0-1.78,6.65q0,7.76,5.21,10.74T834.86,1609Z"/><path d="M1030,1570.21q0-15.95-4.1-22.59t-14.07-6.65a62,62,0,0,0-6.42.34q-3.33.33-6.43.77V1632H966V1519.49q4.2-1.11,9.85-2.33t12-2.22q6.3-1,12.95-1.55t13.07-.55q12.63,0,20.49,3.21a46.08,46.08,0,0,1,13,7.64,61.82,61.82,0,0,1,33.23-10.85q14,0,22.93,3.88a34.6,34.6,0,0,1,14.29,11,41.59,41.59,0,0,1,7.31,16.84,108.59,108.59,0,0,1,2,21.71V1632h-33v-61.81q0-15.95-4.09-22.59t-14.07-6.65a30,30,0,0,0-7.42,1.33,28.84,28.84,0,0,0-7.86,3.33,50.67,50.67,0,0,1,2,10.74q.43,5.64.44,12.07V1632h-33Z"/><path d="M1198.82,1512.4q14.61,0,24.36,3.32a37.72,37.72,0,0,1,15.62,9.53,35.05,35.05,0,0,1,8.31,15.06,74.5,74.5,0,0,1,2.43,19.71v68.68q-7.08,1.54-19.71,3.65a189.76,189.76,0,0,1-30.57,2.11,96.79,96.79,0,0,1-20.49-2,44.43,44.43,0,0,1-15.84-6.53,29.92,29.92,0,0,1-10.19-11.85q-3.56-7.32-3.55-17.95,0-10.19,4.1-17.28a31.5,31.5,0,0,1,11-11.29,49.49,49.49,0,0,1,15.73-6.1,88.48,88.48,0,0,1,18.38-1.88,106.85,106.85,0,0,1,11.41.55,53.54,53.54,0,0,1,8.09,1.44v-3.1q0-8.42-5.1-13.51t-17.72-5.09a113.07,113.07,0,0,0-16.61,1.21,71.36,71.36,0,0,0-14.18,3.44l-4.21-26.59q2.88-.87,7.2-1.88c2.88-.66,6-1.25,9.41-1.77s7-1,10.75-1.33S1195,1512.4,1198.82,1512.4Zm2.65,96.58q4.88,0,9.31-.22a64.26,64.26,0,0,0,7.09-.67v-25c-1.33-.29-3.33-.59-6-.88a64.21,64.21,0,0,0-16.06.11,22.86,22.86,0,0,0-7.2,2.1,12.42,12.42,0,0,0-4.88,4.21,11.74,11.74,0,0,0-1.77,6.65q0,7.76,5.21,10.74C1190.65,1608,1195.42,1609,1201.47,1609Z"/><path d="M1278.34,1486.48l33-5.32v34.34H1351V1543h-39.65v41q0,10.41,3.65,16.61t14.73,6.21a63.56,63.56,0,0,0,11-1A57.17,57.17,0,0,0,1351,1603l4.65,25.7a94.56,94.56,0,0,1-13.29,4.2,76.88,76.88,0,0,1-17.94,1.78q-13.51,0-22.38-3.66a34.93,34.93,0,0,1-14.17-10.19,37.88,37.88,0,0,1-7.43-15.84,93.67,93.67,0,0,1-2.1-20.6Z"/><path d="M1367.83,1574.64q0-15.5,4.77-27.13a58.15,58.15,0,0,1,12.51-19.39,52.16,52.16,0,0,1,17.84-11.74,55.94,55.94,0,0,1,20.71-4q24.81,0,39.21,15.17t14.4,44.64q0,2.88-.23,6.31t-.44,6.09h-74.87a21.88,21.88,0,0,0,9.52,16.17q8.41,6,22.6,6a95.25,95.25,0,0,0,17.83-1.67A67.22,67.22,0,0,0,1466,1601l4.43,26.8a45.64,45.64,0,0,1-7.09,2.66,93.51,93.51,0,0,1-9.86,2.32q-5.43,1-11.63,1.67a117.06,117.06,0,0,1-12.4.66q-15.74,0-27.36-4.65a53.25,53.25,0,0,1-19.27-12.74,50.48,50.48,0,0,1-11.3-19.16A75.81,75.81,0,0,1,1367.83,1574.64Zm77.54-12.62a34.3,34.3,0,0,0-1.44-8.2,20.59,20.59,0,0,0-3.77-7.09,20.2,20.2,0,0,0-6.42-5.09,21,21,0,0,0-9.64-2,22,22,0,0,0-9.52,1.89,19.55,19.55,0,0,0-6.65,5,22.39,22.39,0,0,0-4.1,7.2,46.85,46.85,0,0,0-2.1,8.31Z"/><path d="M1573,1544.74q-4.43-1.11-10.41-2.33a64.45,64.45,0,0,0-12.85-1.22,59.56,59.56,0,0,0-7.42.56,42.59,42.59,0,0,0-6.53,1.22v89h-33V1521.7a198.2,198.2,0,0,1,20.94-5.87,120.9,120.9,0,0,1,26.91-2.77q2.65,0,6.42.33c2.51.23,5,.52,7.54.89s5,.81,7.53,1.33a35.48,35.48,0,0,1,6.42,1.88Z"/></svg>