<svg id="Layer_1" data-name="Layer 1" xmlns="http://www.w3.org/2000/svg" viewBox="0 0 1678.47 820.34"><defs><style>.cls-1{font-size:221.52px;font-family:Ubuntu-Bold, Ubuntu;font-weight:700;}.cls-1,.cls-5{fill:#fff;}.cls-2{letter-spacing:-0.01em;}.cls-3{letter-spacing:-0.02em;}.cls-4{letter-spacing:0em;}</style></defs><title>duramater_vert_w</title><text class="cls-1" transform="translate(258.31 644.48)">du<tspan class="cls-2" x="264.27" y="0">r</tspan><tspan x="355.54" y="0">a ma</tspan><tspan class="cls-3" x="844.65" y="0">t</tspan><tspan class="cls-4" x="938.58" y="0">er</tspan></text><path class="cls-5" d="M1529.26,703.78a24.5,24.5,0,0,1-23.88-19.17,677.42,677.42,0,0,0-87.07-212,683,683,0,0,0-1157.86-1.12,677.13,677.13,0,0,0-87.37,211.36A24.5,24.5,0,0,1,125.29,672,726.11,726.11,0,0,1,219,445.41a732,732,0,0,1,1240.89,1.2,726.25,726.25,0,0,1,93.35,227.32,24.51,24.51,0,0,1-18.57,29.25A24.76,24.76,0,0,1,1529.26,703.78Z"/></svg>